<svg xmlns="http://www.w3.org/2000/svg" xmlns:xlink="http://www.w3.org/1999/xlink" viewBox="0 0 110.64 95.13"><defs><style>.cls-1,.cls-11,.cls-9{fill:none;}.cls-2,.cls-5,.cls-8{fill:#fff;}.cls-2{stroke:#015a8f;}.cls-11,.cls-2,.cls-9{stroke-miterlimit:10;}.cls-11,.cls-2{stroke-width:0.44px;}.cls-3{clip-path:url(#clip-path);}.cls-4{fill:#1fc883;}.cls-6{fill:#00a253;}.cls-7{fill:#7ae7ac;}.cls-8{opacity:0.4;}.cls-9{stroke:#fff;stroke-width:0.6px;stroke-dasharray:1.2 1.2;}.cls-10{fill:#227d26;}.cls-11{stroke:#002043;}</style><clipPath id="clip-path"><path class="cls-1" d="M110.42,91.64c0,1.81-2.35,3.28-5.26,3.28H5.48c-2.91,0-5.26-1.47-5.26-3.28V3.5C.22,1.69,2.57.22,5.48.22h99.68c2.91,0,5.26,1.47,5.26,3.28Z"/></clipPath></defs><title>DESC_RETEICAT</title><g id="Layer_2" data-name="Layer 2"><g id="Capa_1" data-name="Capa 1"><path class="cls-2" d="M110.42,91.64c0,1.81-2.35,3.28-5.26,3.28H5.48c-2.91,0-5.26-1.47-5.26-3.28V3.5C.22,1.69,2.57.22,5.48.22h99.68c2.91,0,5.26,1.47,5.26,3.28Z"/><g class="cls-3"><path class="cls-2" d="M110.42,91.64c0,1.81-2.35,3.28-5.26,3.28H5.48c-2.91,0-5.26-1.47-5.26-3.28V3.5C.22,1.69,2.57.22,5.48.22h99.68c2.91,0,5.26,1.47,5.26,3.28Z"/><path class="cls-1" d="M88.58,23.72l-50,29.21H21.7L.22,65.22v2l8,4.64V88.61L.56,92.77c.74,1.25,2.66,2.14,4.92,2.14h99.68c2.9,0,5.26-1.47,5.26-3.28V36Z"/><polygon class="cls-1" points="82.86 0.22 81.68 0.22 82.27 0.55 82.86 0.22"/><polygon class="cls-4" points="88.58 23.72 110.42 35.98 110.42 13.52 108.2 12.26 88.58 23.72"/><path class="cls-4" d="M82.27.55,81.68.22H5.48C2.57.22.22,1.69.22,3.5V29.32l15.33,9.44Z"/><polygon class="cls-5" points="100.43 7.85 30.45 47.92 38.59 52.93 88.58 23.72 108.2 12.26 100.43 7.85"/><polygon class="cls-6" points="0.22 29.32 0.22 47.53 15.55 38.75 0.22 29.32"/><polygon class="cls-6" points="21.7 52.93 23.16 52.93 38.59 52.93 30.45 47.92 21.7 52.93"/><polygon class="cls-7" points="30.45 47.92 100.43 7.85 86.98 0.22 82.86 0.22 82.27 0.55 15.55 38.75 0.22 47.53 0.22 65.22 21.7 52.93 30.45 47.92"/><path class="cls-6" d="M100.43,7.85l7.77,4.41,2.22,1.26V3.5c0-1.81-2.35-3.28-5.26-3.28H87Z"/><path class="cls-4" d="M.22,84.25v7.39a2.21,2.21,0,0,0,.34,1.14l7.61-4.17Z"/><polygon class="cls-6" points="8.18 71.89 0.22 67.25 0.22 84.25 8.18 88.61 8.18 71.89"/><circle class="cls-5" cx="55.32" cy="49.63" r="33.76"/><circle class="cls-8" cx="55.32" cy="49.63" r="37.59"/><circle class="cls-9" cx="55.32" cy="49.63" r="37.59"/><path d="M27.11,80.39H25.38l-1-2.49a.73.73,0,0,0-.35-.41,1.36,1.36,0,0,0-.59-.12H22.42v3H20.8V72.92h3.32a3,3,0,0,1,2,.57,2,2,0,0,1,.67,1.63,2.1,2.1,0,0,1-.39,1.28,2.15,2.15,0,0,1-1.13.77,1.3,1.3,0,0,1,1,.91Zm-3.22-4.26a1.77,1.77,0,0,0,1-.24,1,1,0,0,0,0-1.48,1.77,1.77,0,0,0-1-.24H22.4v2Z"/><path d="M28.23,80.39V72.92h5.15v1.27H29.82V76h3.34v1.28H29.82v1.89h3.56v1.27Z"/><path d="M36.32,80.39V74.25H34V72.92h6.33v1.33H38v6.14Z"/><path d="M41.18,80.39V72.92h5.15v1.27H42.78V76h3.34v1.28H42.78v1.89h3.56v1.27Z"/><path d="M52.4,72.92h1.54v7.47H52.72L49,75.63v4.76H47.47V72.92h1.21l3.72,4.75Z"/><path d="M57,80a3.22,3.22,0,0,1-1.29-1.34,4.72,4.72,0,0,1,0-4A3.19,3.19,0,0,1,57,73.3a4,4,0,0,1,2-.47,4.46,4.46,0,0,1,1.42.23,2.92,2.92,0,0,1,1.11.63L61,74.86a3.82,3.82,0,0,0-1-.55,2.92,2.92,0,0,0-1-.17,1.9,1.9,0,0,0-1.54.64,2.85,2.85,0,0,0-.53,1.87,2.88,2.88,0,0,0,.53,1.88,1.89,1.89,0,0,0,1.54.65A2.92,2.92,0,0,0,60,79a3.82,3.82,0,0,0,1-.55l.51,1.17a2.9,2.9,0,0,1-1.11.63,4.46,4.46,0,0,1-1.42.23A4,4,0,0,1,57,80Z"/><path d="M62.62,80.39V72.92h1.64v7.47Z"/><path d="M67.25,80A3.14,3.14,0,0,1,66,78.68a4.4,4.4,0,0,1-.45-2,4.34,4.34,0,0,1,.45-2,3.16,3.16,0,0,1,1.27-1.33,4.23,4.23,0,0,1,3.87,0,3.14,3.14,0,0,1,1.26,1.33,4.38,4.38,0,0,1,.44,2,4.45,4.45,0,0,1-.44,2A3.11,3.11,0,0,1,71.12,80a4.23,4.23,0,0,1-3.87,0Zm3.41-1.47a3,3,0,0,0,.53-1.9,2.93,2.93,0,0,0-.53-1.89,2,2,0,0,0-2.95,0,2.93,2.93,0,0,0-.53,1.89,3,3,0,0,0,.53,1.9,2,2,0,0,0,2.95,0Zm-1-6.26h-1l1.08-1.65h1.47Z"/><path d="M79,72.92h1.54v7.47H79.35l-3.72-4.76v4.76H74.1V72.92H75.3L79,77.67Z"/><path d="M85,72.92H87.9a4.66,4.66,0,0,1,2.11.44,3.08,3.08,0,0,1,1.35,1.28,4.06,4.06,0,0,1,.47,2,4.12,4.12,0,0,1-.46,2A3.08,3.08,0,0,1,90,79.94a4.64,4.64,0,0,1-2.12.45H85Zm2.78,6.15a2.41,2.41,0,0,0,0-4.82H86.65v4.82Z"/><path d="M93.1,80.39V72.92h5.15v1.27H94.69V76H98v1.28H94.69v1.89h3.56v1.27Z"/><path class="cls-10" d="M12.88,89.2v-5.7h.65v5.7Z"/><path class="cls-10" d="M18.87,83.51h.62v5.7H19l-3.43-4.58V89.2h-.61v-5.7h.5l3.43,4.58Z"/><path class="cls-10" d="M20.89,83.51H22.8a2.87,2.87,0,0,1,2.11.74,3.34,3.34,0,0,1,0,4.21,2.86,2.86,0,0,1-2.11.74H20.89Zm1.87,5.14a2.2,2.2,0,0,0,1.66-.58A2.39,2.39,0,0,0,25,86.35a2,2,0,0,0-2.21-2.28H21.55v4.58Z"/><path class="cls-10" d="M27.38,88.69A2.35,2.35,0,0,1,26.81,87V83.51h.65V87a1.75,1.75,0,0,0,.41,1.26,1.59,1.59,0,0,0,1.21.42,1.57,1.57,0,0,0,1.19-.42,1.76,1.76,0,0,0,.4-1.26V83.51h.65V87a2.34,2.34,0,0,1-.57,1.71,2.25,2.25,0,0,1-1.68.58A2.27,2.27,0,0,1,27.38,88.69Z"/><path class="cls-10" d="M32.36,88.55l.25-.5a2.71,2.71,0,0,0,.86.51,3.11,3.11,0,0,0,1,.15,1.79,1.79,0,0,0,1.06-.27.88.88,0,0,0,.37-.76.63.63,0,0,0-.18-.47,1.24,1.24,0,0,0-.47-.28,7.11,7.11,0,0,0-.78-.22,7.18,7.18,0,0,1-1.08-.31,1.68,1.68,0,0,1-.69-.48,1.25,1.25,0,0,1-.26-.83,1.48,1.48,0,0,1,.26-.86,1.68,1.68,0,0,1,.72-.58,2.66,2.66,0,0,1,1.09-.21,3.24,3.24,0,0,1,1.1.18,2.3,2.3,0,0,1,.86.54l-.26.5a2.85,2.85,0,0,0-.81-.5,2.46,2.46,0,0,0-.9-.16,1.68,1.68,0,0,0-1,.28.92.92,0,0,0-.38.78.73.73,0,0,0,.33.65,3.27,3.27,0,0,0,1,.38q.73.18,1.15.32a1.71,1.71,0,0,1,.7.45,1.12,1.12,0,0,1,.28.8,1.43,1.43,0,0,1-.26.84,1.64,1.64,0,0,1-.73.56,2.85,2.85,0,0,1-1.11.2A3,3,0,0,1,32.36,88.55Z"/><path class="cls-10" d="M39,89.2V84.07H37v-.56h4.62v.56h-2V89.2Z"/><path class="cls-10" d="M46.93,89.2h-.69l-.7-1.9a.81.81,0,0,0-.35-.47,1.4,1.4,0,0,0-.64-.12H43.11V89.2h-.65v-5.7h2.26a2.15,2.15,0,0,1,1.41.41,1.44,1.44,0,0,1,.49,1.18,1.5,1.5,0,0,1-.29.94,1.57,1.57,0,0,1-.84.54.77.77,0,0,1,.42.21,1.34,1.34,0,0,1,.29.49Zm-2.26-3Q46,86.17,46,85.1a1,1,0,0,0-.32-.79,1.55,1.55,0,0,0-1-.26H43.11v2.12Z"/><path class="cls-10" d="M48,89.2v-5.7h.65v5.7Z"/><path class="cls-10" d="M54.4,89.2l-.62-1.46h-3l-.63,1.46H49.5l2.5-5.7h.57l2.5,5.7Zm-3.36-2h2.51l-1.25-2.93Z"/><path class="cls-10" d="M62.27,83.51,60,86.9v2.3h-.65V86.89l-2.23-3.38h.77l1.8,2.8,1.8-2.8Z"/><path class="cls-10" d="M65.95,88.91a2.31,2.31,0,0,1-.91-1,3.54,3.54,0,0,1-.32-1.56A3.48,3.48,0,0,1,65,84.8a2.32,2.32,0,0,1,.91-1,2.7,2.7,0,0,1,1.4-.35,3.12,3.12,0,0,1,1.08.18,2.32,2.32,0,0,1,.85.54l-.25.5a2.78,2.78,0,0,0-.8-.5,2.43,2.43,0,0,0-.87-.15,1.79,1.79,0,0,0-1.45.61,2.6,2.6,0,0,0-.51,1.73,2.64,2.64,0,0,0,.51,1.74,1.79,1.79,0,0,0,1.45.61,2.43,2.43,0,0,0,.87-.15A2.76,2.76,0,0,0,69,88l.25.5a2.3,2.3,0,0,1-.85.54,3.12,3.12,0,0,1-1.08.18A2.69,2.69,0,0,1,65.95,88.91Z"/><path class="cls-10" d="M71.39,88.91a2.31,2.31,0,0,1-.9-1,4,4,0,0,1,0-3.1,2.3,2.3,0,0,1,.89-1,2.89,2.89,0,0,1,2.76,0,2.3,2.3,0,0,1,.89,1,4,4,0,0,1,0,3.1,2.34,2.34,0,0,1-.9,1,2.84,2.84,0,0,1-2.75,0Zm2.78-.82a3.27,3.27,0,0,0,0-3.48,1.94,1.94,0,0,0-2.82,0,2.66,2.66,0,0,0-.5,1.73,2.69,2.69,0,0,0,.5,1.74,1.92,1.92,0,0,0,2.82,0Z"/><path class="cls-10" d="M81.37,83.51h.54v5.7h-.61V85L79.46,89.2H79L77.14,85v4.2h-.61v-5.7h.54l2.15,4.91Z"/><path class="cls-10" d="M83.32,89.2v-5.7h3.59V84H84v2h2.79v.55H84v2.07h2.95v.54Z"/><path class="cls-10" d="M92.47,89.2h-.69l-.7-1.9a.81.81,0,0,0-.35-.47,1.4,1.4,0,0,0-.64-.12H88.66V89.2H88v-5.7h2.26a2.15,2.15,0,0,1,1.41.41,1.44,1.44,0,0,1,.49,1.18,1.5,1.5,0,0,1-.29.94,1.57,1.57,0,0,1-.84.54.77.77,0,0,1,.42.21,1.34,1.34,0,0,1,.29.49Zm-2.26-3q1.31,0,1.31-1.07a1,1,0,0,0-.32-.79,1.55,1.55,0,0,0-1-.26H88.66v2.12Z"/><path class="cls-10" d="M94.57,88.91a2.31,2.31,0,0,1-.91-1,3.54,3.54,0,0,1-.32-1.56,3.48,3.48,0,0,1,.32-1.55,2.32,2.32,0,0,1,.91-1,2.7,2.7,0,0,1,1.4-.35,3.12,3.12,0,0,1,1.08.18,2.32,2.32,0,0,1,.85.54l-.25.5a2.78,2.78,0,0,0-.8-.5A2.43,2.43,0,0,0,96,84a1.79,1.79,0,0,0-1.45.61A2.6,2.6,0,0,0,94,86.35a2.64,2.64,0,0,0,.51,1.74A1.79,1.79,0,0,0,96,88.7a2.43,2.43,0,0,0,.87-.15,2.76,2.76,0,0,0,.8-.5l.25.5a2.3,2.3,0,0,1-.85.54,3.12,3.12,0,0,1-1.08.18A2.69,2.69,0,0,1,94.57,88.91Z"/><path class="cls-10" d="M99,89.2v-5.7h.65v5.7Z"/><path class="cls-10" d="M102.07,88.91a2.31,2.31,0,0,1-.9-1,4,4,0,0,1,0-3.1,2.3,2.3,0,0,1,.89-1,2.89,2.89,0,0,1,2.76,0,2.3,2.3,0,0,1,.89,1,4,4,0,0,1,0,3.1,2.34,2.34,0,0,1-.9,1,2.84,2.84,0,0,1-2.75,0Zm2.78-.82a3.27,3.27,0,0,0,0-3.48,1.94,1.94,0,0,0-2.82,0,2.66,2.66,0,0,0-.5,1.73,2.69,2.69,0,0,0,.5,1.74,1.92,1.92,0,0,0,2.82,0Z"/><polygon points="39.08 66.34 59.74 66.34 59.98 64.83 40.53 64.83 40.53 41.17 39.08 41.17 39.08 66.34"/><path d="M62.57,21H39.08v2.58h1.45V22.49h21V33.07H71.7v4.15A2.3,2.3,0,0,0,73.15,37V32ZM63,31.56v-8l7.67,8Z"/><path d="M65.17,36.85H46.29a.76.76,0,0,0,0,1.51H65.17a.76.76,0,0,0,0-1.51Z"/><path d="M46.29,46.81a.76.76,0,0,0,0,1.51H60.8l.15-1.51Z"/><path d="M46.29,56.76a.76.76,0,0,0,0,1.51H59.83L60,56.76Z"/><rect x="39.08" y="25.56" width="1.45" height="1.51"/><rect x="39.08" y="29.27" width="1.45" height="1.51"/><rect x="39.08" y="32.99" width="1.45" height="1.51"/><rect x="39.08" y="36.71" width="1.45" height="1.51"/><rect x="71.7" y="43.85" width="1.45" height="1.51"/><rect x="71.7" y="47.57" width="1.45" height="1.51"/><path d="M73,41.15a.57.57,0,1,0,.61.57A.59.59,0,0,0,73,41.15Z"/><path d="M69.34,38.88a.57.57,0,1,0,.61.57A.59.59,0,0,0,69.34,38.88Z"/><path d="M77.24,55.84V51.93a.56.56,0,0,0-.32-.5.64.64,0,0,0-.62,0l-6.07,3.79-.88-10.17a.59.59,0,0,0-.61-.52H63.51a.59.59,0,0,0-.61.52l-.39,4.54L61.09,66.2a.55.55,0,0,0,.16.43.63.63,0,0,0,.45.18h23a.59.59,0,0,0,.61-.57V51.94a.56.56,0,0,0-.32-.5.64.64,0,0,0-.62,0l-6.53,4ZM64.07,45.69h4.1l.1,1.14H64ZM63.88,48h4.49l.1,1.14H63.78Zm-.2,2.27h4.88l.1,1.14H63.59ZM62.35,65.68l.11-1.32a.62.62,0,0,0,.44.18h5.22a.57.57,0,1,0,0-1.14H62.91a.63.63,0,0,0-.37.12l1-11h5.28L69.9,65.68ZM76,56.5a.56.56,0,0,0,.32.5.64.64,0,0,0,.62,0l7.15-4V65.68h-13l-.79-9.14L76,53v3.48a.56.56,0,0,0,.32.5.64.64,0,0,0,.62,0"/><path d="M76.65,58.78H73.44a.52.52,0,0,0-.54.5v2.15a.52.52,0,0,0,.54.5h3.21a.52.52,0,0,0,.54-.5V59.28A.52.52,0,0,0,76.65,58.78Zm-.19,2.67H73.64v-2h2.83Z"/><path d="M82.52,58.78H79.3a.52.52,0,0,0-.54.5v2.15a.52.52,0,0,0,.54.5h3.21a.52.52,0,0,0,.54-.5V59.28A.52.52,0,0,0,82.52,58.78Zm-.19,2.67H79.5v-2h2.83Z"/><path d="M75.41,37.75h0a.59.59,0,0,0-.6.57.51.51,0,0,1-.17.37.65.65,0,0,1-.44.17H71.77a.57.57,0,1,0,0,1.14H74.2a1.91,1.91,0,0,0,1.31-.51A1.6,1.6,0,0,0,76,38.32.59.59,0,0,0,75.41,37.75Z"/><path d="M66.91,38.88h-.12a3,3,0,0,0-3,2.84.61.61,0,0,0,1.21,0A1.77,1.77,0,0,1,66.79,40h.12a.57.57,0,1,0,0-1.14Z"/><path d="M76.62,40a.59.59,0,0,0-.6.57.51.51,0,0,1-.16.37.65.65,0,0,1-.44.17.57.57,0,1,0,0,1.14,1.91,1.91,0,0,0,1.31-.51,1.6,1.6,0,0,0,.52-1.19A.59.59,0,0,0,76.62,40Z"/><path d="M70.56,41.15H68.61a1.77,1.77,0,0,0-1.82,1.7.61.61,0,0,0,1.21,0,.59.59,0,0,1,.61-.57h1.94a.57.57,0,1,0,0-1.14Z"/></g><path class="cls-11" d="M110.42,91.64c0,1.81-2.35,3.28-5.26,3.28H5.48c-2.91,0-5.26-1.47-5.26-3.28V3.5C.22,1.69,2.57.22,5.48.22h99.68c2.91,0,5.26,1.47,5.26,3.28Z"/></g></g></svg>