<?xml version="1.0" encoding="utf-8"?>
<!-- Generator: Adobe Illustrator 22.0.1, SVG Export Plug-In . SVG Version: 6.00 Build 0)  -->
<svg version="1.1" id="Capa_1" xmlns="http://www.w3.org/2000/svg" xmlns:xlink="http://www.w3.org/1999/xlink" x="0px" y="0px"
	 viewBox="0 0 110.6 95.1" style="enable-background:new 0 0 110.6 95.1;" xml:space="preserve">
<style type="text/css">
	.st0{fill:#FFFFFF;stroke:#015A8F;stroke-width:0.44;stroke-miterlimit:10;}
	.st1{clip-path:url(#SVGID_2_);}
	.st2{fill:none;}
	.st3{fill:#79BD1F;}
	.st4{fill:#FFFFFF;}
	.st5{fill:#227D26;}
	.st6{fill:#8BC534;}
	.st7{opacity:0.4;fill:#FFFFFF;enable-background:new    ;}
	.st8{fill:none;stroke:#FFFFFF;stroke-width:0.6;stroke-miterlimit:10;stroke-dasharray:1.2,1.2;}
	.st9{fill:none;stroke:#000000;stroke-width:0.5;stroke-miterlimit:10;}
	.st10{fill:none;stroke:#002043;stroke-width:0.44;stroke-miterlimit:10;}
</style>
<g id="Layer_2">
	<g id="Capa_1_1_">
		<path class="st0" d="M110.4,91.6c0,1.8-2.3,3.3-5.3,3.3H5.5c-2.9,0-5.3-1.5-5.3-3.3V3.5c0-1.8,2.4-3.3,5.3-3.3h99.7
			c2.9,0,5.3,1.5,5.3,3.3L110.4,91.6z"/>
		<g>
			<defs>
				<path id="SVGID_1_" d="M110.4,91.6c0,1.8-2.3,3.3-5.3,3.3H5.5c-2.9,0-5.3-1.5-5.3-3.3V3.5c0-1.8,2.4-3.3,5.3-3.3h99.7
					c2.9,0,5.3,1.5,5.3,3.3L110.4,91.6z"/>
			</defs>
			<clipPath id="SVGID_2_">
				<use xlink:href="#SVGID_1_"  style="overflow:visible;"/>
			</clipPath>
			<g class="st1">
				<path class="st0" d="M110.4,91.6c0,1.8-2.3,3.3-5.3,3.3H5.5c-2.9,0-5.3-1.5-5.3-3.3V3.5c0-1.8,2.4-3.3,5.3-3.3h99.7
					c2.9,0,5.3,1.5,5.3,3.3L110.4,91.6z"/>
				<path class="st2" d="M88.6,23.7l-50,29.2H21.7L0.5,65.1l11.7,6.8v16.7L2.1,94.1c1,0.5,2.2,0.8,3.4,0.8h99.7
					c2.9,0,5.3-1.5,5.3-3.3V36L88.6,23.7z"/>
				<polygon class="st2" points="82.9,0.2 81.7,0.2 82.3,0.6 				"/>
				<polygon class="st3" points="88.6,23.7 110.4,36 110.4,13.5 108.2,12.3 				"/>
				<path class="st3" d="M82.3,0.6l-0.6-0.3H5.5c-2.9,0-5.3,1.5-5.3,3.3v25.8l15.3,9.4L82.3,0.6z"/>
				<polygon class="st4" points="100.4,7.8 30.5,47.9 38.6,52.9 88.6,23.7 108.2,12.3 				"/>
				<polygon class="st5" points="0.2,29.3 0.2,47.5 15.6,38.8 				"/>
				<polygon class="st5" points="21.7,52.9 23.2,52.9 38.6,52.9 30.5,47.9 				"/>
				<polygon class="st6" points="21.7,52.9 30.5,47.9 100.4,7.8 87,0.2 82.9,0.2 82.3,0.6 15.6,38.8 0.2,47.5 0.2,64.9 0.5,65.1 
									"/>
				<path class="st5" d="M100.4,7.8l7.8,4.4l2.2,1.3v-10c0-1.8-2.3-3.3-5.3-3.3H87L100.4,7.8z"/>
				<path class="st3" d="M0.2,82.1v9.6c0.1,1.1,0.8,2.1,1.9,2.5l10.1-5.5L0.2,82.1z"/>
				<polygon class="st5" points="12.2,71.9 0.5,65.1 0.2,64.9 0.2,82.1 12.2,88.6 				"/>
				<circle class="st4" cx="55.3" cy="49.6" r="33.8"/>
				<circle class="st7" cx="55.3" cy="49.6" r="37.6"/>
				<circle class="st8" cx="55.3" cy="49.6" r="37.6"/>
				<path d="M25.8,80.4v-7.5h1.6v7.5H25.8z"/>
				<path d="M33.9,72.9h1.5v7.5h-1.2l-3.7-4.8v4.8H29v-7.5h1.2l3.7,4.8L33.9,72.9z"/>
				<path d="M36.9,72.9h2.9c0.7,0,1.5,0.1,2.1,0.4c0.6,0.3,1,0.7,1.3,1.3c0.3,0.6,0.5,1.3,0.5,2c0,0.7-0.1,1.4-0.5,2
					c-0.3,0.6-0.8,1-1.3,1.3c-0.7,0.3-1.4,0.5-2.1,0.4h-2.9V72.9z M39.7,79.1c1.3,0,2.4-1.1,2.4-2.4c0-1.3-1.1-2.4-2.4-2.4h-1.1v4.8
					H39.7z"/>
				<path d="M45.8,79.7c-0.6-0.6-0.9-1.5-0.8-2.4v-4.4h1.6v4.5c0,0.5,0.1,1,0.4,1.4c0.3,0.3,0.7,0.5,1.2,0.5c0.4,0,0.9-0.1,1.2-0.5
					c0.3-0.4,0.4-0.9,0.4-1.4v-4.5h1.6v4.4c0.1,0.9-0.2,1.7-0.8,2.4C49.2,80.8,47.2,80.8,45.8,79.7L45.8,79.7z"/>
				<path d="M53.8,80.3c-0.5-0.1-0.9-0.3-1.3-0.6l0.5-1.2c0.7,0.5,1.5,0.8,2.4,0.8c0.4,0,0.8-0.1,1.1-0.2c0.2-0.1,0.4-0.4,0.4-0.6
					c0-0.2-0.1-0.5-0.3-0.6c-0.4-0.2-0.8-0.3-1.2-0.4c-0.5-0.1-1.1-0.3-1.6-0.5c-0.3-0.2-0.6-0.4-0.8-0.7c-0.2-0.3-0.3-0.6-0.3-1
					c0-0.4,0.1-0.9,0.3-1.2c0.3-0.4,0.6-0.6,1-0.8c0.5-0.2,1-0.3,1.5-0.3c0.5,0,1,0.1,1.5,0.2c0.4,0.1,0.8,0.3,1.2,0.6l-0.5,1.2
					c-0.6-0.5-1.4-0.8-2.2-0.8c-0.4,0-0.7,0.1-1,0.3c-0.2,0.1-0.4,0.4-0.4,0.7c0,0.2,0,0.3,0.1,0.4c0.1,0.1,0.3,0.2,0.5,0.3
					c0.3,0.1,0.7,0.2,1,0.3c0.7,0.1,1.4,0.4,2.1,0.8c0.4,0.3,0.7,0.8,0.6,1.4c0,0.7-0.3,1.3-0.8,1.7c-0.7,0.4-1.5,0.7-2.3,0.6
					C54.9,80.5,54.3,80.4,53.8,80.3z"/>
				<path d="M61.3,80.4v-6.1H59v-1.3h6.3v1.3H63v6.1H61.3z"/>
				<path d="M72.5,80.4h-1.7l-1-2.5c-0.1-0.2-0.2-0.3-0.3-0.4c-0.2-0.1-0.4-0.1-0.6-0.1h-1v3h-1.6v-7.4h3.3c0.7-0.1,1.4,0.1,2,0.6
					c0.5,0.4,0.7,1,0.7,1.6c0,0.5-0.1,0.9-0.4,1.3c-0.3,0.4-0.7,0.6-1.1,0.8c0.5,0.1,0.9,0.4,1,0.9L72.5,80.4z M69.3,76.1
					c0.3,0,0.7-0.1,1-0.2c0.4-0.4,0.4-1,0.1-1.4c0,0,0,0-0.1-0.1c-0.3-0.2-0.7-0.3-1-0.2h-1.5v2L69.3,76.1z"/>
				<path d="M73.6,80.4v-7.5h1.6v7.5H73.6z"/>
				<path d="M82.4,80.4l-0.7-1.7h-3.5l-0.7,1.7h-1.7l3.4-7.5h1.3l3.4,7.5H82.4z M78.8,77.5h2.4L80,74.7L78.8,77.5z"/>
				<path d="M94.2,72.9l-3.1,4.6v2.9h-1.6v-2.9l-3.1-4.6h1.9l2,3.2l2.1-3.2L94.2,72.9z"/>
				<path class="st5" d="M37.8,88.9c-0.4-0.3-0.8-0.7-1-1.1c-0.3-0.6-0.4-1.2-0.4-1.8c0-0.6,0.1-1.2,0.3-1.7c0.2-0.5,0.6-0.8,1-1.1
					c0.5-0.3,1-0.4,1.5-0.4c0.4,0,0.8,0.1,1.2,0.2c0.4,0.1,0.7,0.3,0.9,0.6l-0.3,0.6c-0.3-0.2-0.6-0.4-0.9-0.6
					c-0.3-0.1-0.7-0.2-1-0.2c-0.6,0-1.2,0.2-1.6,0.7c-0.4,0.6-0.6,1.2-0.5,1.9c-0.1,0.7,0.1,1.4,0.6,2c0.4,0.5,1,0.7,1.6,0.7
					c0.3,0,0.7-0.1,1-0.2c0.3-0.1,0.6-0.3,0.9-0.6l0.3,0.6c-0.3,0.3-0.6,0.5-0.9,0.6c-0.4,0.1-0.8,0.2-1.2,0.2
					C38.8,89.3,38.3,89.2,37.8,88.9z"/>
				<path class="st5" d="M43.8,88.9c-0.4-0.3-0.8-0.7-1-1.1c-0.2-0.6-0.4-1.2-0.3-1.8c0-0.6,0.1-1.2,0.3-1.7c0.2-0.5,0.6-0.9,1-1.1
					c1-0.5,2.1-0.5,3.1,0c0.4,0.3,0.8,0.7,1,1.1c0.5,1.1,0.5,2.3,0,3.4c-0.2,0.5-0.6,0.9-1,1.1C46,89.3,44.8,89.3,43.8,88.9
					L43.8,88.9z M46.9,88c0.7-1.2,0.7-2.7,0-3.9c-0.8-0.9-2.2-0.9-3-0.1c0,0-0.1,0.1-0.1,0.1c-0.4,0.5-0.6,1.2-0.6,1.9
					c-0.1,0.7,0.1,1.4,0.6,2c0.8,0.9,2.1,0.9,3,0.1C46.8,88.1,46.9,88,46.9,88z"/>
				<path class="st5" d="M54.9,82.9h0.6v6.3h-0.7v-4.7l-2,4.7h-0.5l-2.1-4.7v4.7h-0.7v-6.3h0.6l2.4,5.4L54.9,82.9z"/>
				<path class="st5" d="M57.1,89.2v-6.3h4v0.6h-3.3v2.2h3.1v0.6h-3.1v2.3h3.3v0.6L57.1,89.2z"/>
				<path class="st5" d="M67.2,89.2h-0.8l-0.8-2.1c-0.1-0.2-0.2-0.4-0.4-0.5c-0.2-0.1-0.5-0.1-0.7-0.1H63v2.7h-0.7v-6.3h2.5
					c0.6,0,1.1,0.1,1.6,0.4c0.4,0.3,0.6,0.8,0.5,1.3c0,0.4-0.1,0.7-0.3,1c-0.2,0.3-0.6,0.5-0.9,0.6c0.2,0,0.3,0.1,0.5,0.2
					c0.1,0.2,0.3,0.3,0.3,0.6L67.2,89.2z M64.7,85.8c1,0,1.4-0.4,1.4-1.2c0-0.3-0.1-0.7-0.3-0.9c-0.3-0.2-0.7-0.3-1.1-0.3H63v2.3
					L64.7,85.8z"/>
				<path class="st5" d="M69.6,88.9c-0.4-0.3-0.8-0.7-1-1.1c-0.3-0.6-0.4-1.2-0.4-1.8c0-0.6,0.1-1.2,0.3-1.7c0.2-0.5,0.6-0.8,1-1.1
					c0.5-0.3,1-0.4,1.6-0.4c0.4,0,0.8,0.1,1.2,0.2c0.4,0.1,0.7,0.3,0.9,0.6L73,84.1c-0.3-0.2-0.6-0.4-0.9-0.6
					c-0.3-0.1-0.7-0.2-1-0.2c-0.6,0-1.2,0.2-1.6,0.7c-0.4,0.6-0.6,1.2-0.5,1.9c-0.1,0.7,0.1,1.4,0.6,2c0.4,0.5,1,0.7,1.6,0.7
					c0.3,0,0.7-0.1,1-0.2c0.3-0.1,0.6-0.3,0.9-0.6l0.3,0.6c-0.3,0.3-0.6,0.5-0.9,0.6c-0.4,0.1-0.8,0.2-1.2,0.2
					C70.6,89.3,70,89.2,69.6,88.9z"/>
				<path class="st5" d="M74.5,89.2v-6.3h0.7v6.3H74.5z"/>
				<path class="st5" d="M77.9,88.9c-0.4-0.3-0.8-0.7-1-1.1c-0.2-0.6-0.4-1.2-0.4-1.8c0-0.6,0.1-1.2,0.3-1.7c0.2-0.5,0.6-0.9,1-1.1
					c1-0.5,2.1-0.5,3.1,0c0.4,0.3,0.8,0.7,1,1.1c0.5,1.1,0.5,2.3,0,3.4c-0.2,0.5-0.6,0.9-1,1.1C80,89.3,78.9,89.3,77.9,88.9
					L77.9,88.9z M81,88c0.7-1.2,0.7-2.7,0-3.9c-0.8-0.9-2.2-0.9-3-0.1c0,0-0.1,0.1-0.1,0.1c-0.4,0.5-0.6,1.2-0.6,1.9
					c-0.1,0.7,0.1,1.4,0.6,2c0.8,0.9,2.1,0.9,3,0.2C80.9,88.1,80.9,88.1,81,88z"/>
				<path d="M87.7,63.1h-2.9V51c1.1-1,1.3-2.8,0.3-3.9c-0.5-0.6-1.3-0.9-2.1-0.9h-5.8l-0.9-11c0-0.5-0.4-0.8-0.9-0.8h-3.8
					c-0.5,0-0.9,0.4-0.9,0.8l-0.9,11h-2.1l-0.9-11c0-0.5-0.4-0.8-0.9-0.8h-3.8c-0.5,0-0.9,0.4-0.9,0.8l-0.9,11h-2.1l-0.9-11
					c0-0.5-0.4-0.8-0.9-0.8h-3.8c-0.5,0-0.9,0.4-0.9,0.8l-0.9,11h-2.5l-0.5-21.3c0-0.5-0.4-0.9-0.9-0.9h-5.7c-0.5,0-0.9,0.4-0.9,0.9
					l-0.6,25.1h-7c-1.5,0-2.8,1.2-2.8,2.8c0,0.8,0.3,1.6,0.9,2.1v8.4h-1.9c-0.5,0-0.9,0.4-0.9,0.9c0,0.5,0.4,0.9,0.9,0.9l0,0h58.5
					c0.5,0,0.9-0.4,0.9-0.9C88.5,63.5,88.1,63.1,87.7,63.1L87.7,63.1z M39.8,53.7h-3.1c-0.5,0-0.9,0.4-0.9,0.9
					c0,0.5,0.4,0.9,0.9,0.9l0,0h3.1l-0.2,7.7h-6.7v-7.7h0.1c0.5,0,0.9-0.4,0.9-0.9c0-0.5-0.4-0.9-0.9-0.9c-0.6,0-1-0.4-1-1
					s0.4-1,1-1h6.9L39.8,53.7z M72.4,36.1h2.1l0.8,10h-3.8L72.4,36.1z M63,36.1h2.1l0.8,10h-3.8L63,36.1z M53.6,36.1h2.1l0.8,10
					h-3.8L53.6,36.1z M43.3,63.1h-2l0.9-37.4h3.9l0.5,20.4h-1.6c-1.5,0-2.8,1.2-2.9,2.7c0,0.9,0.4,1.7,1,2.2L43.3,63.1z M82.9,49.9
					H81c-0.5,0-0.9,0.4-0.9,0.9c0,0.5,0.4,0.9,0.9,0.9h2v11.5H45.1V51.7h32.2c0.5,0,0.9-0.4,0.9-0.9c0-0.5-0.4-0.9-0.9-0.9H45.2
					c-0.6,0-1-0.4-1-1s0.4-1,1-1h37.8c0.6,0,1,0.4,1,1S83.5,49.9,82.9,49.9L82.9,49.9z"/>
				<path d="M60,16.1c-1.4,0-2.7,0.5-3.8,1.4c-1.7-1.3-4.2-1.1-5.7,0.4c-1.7-0.8-3.7,0-4.5,1.7c0,0,0,0,0,0
					c-0.2-0.1-0.4-0.1-0.6-0.1c-0.9,0-1.8,0.6-2.1,1.5h-0.2c-0.8,0-1.4,0.6-1.4,1.4c0,0.3,0.2,0.5,0.5,0.5c0.3,0,0.5-0.2,0.5-0.5
					c0-0.3,0.2-0.5,0.5-0.5l0,0c0.1,0,0.2,0,0.3,0.1c0.2,0.1,0.5,0.1,0.6-0.2c0-0.1,0.1-0.1,0.1-0.2c0-0.7,0.6-1.2,1.3-1.2
					c0.2,0,0.4,0.1,0.6,0.2c0.2,0.1,0.5,0,0.6-0.2c0,0,0-0.1,0-0.1c0.4-1.3,1.7-2.1,3-1.8c0.2,0.1,0.4,0.1,0.6,0.2
					c0.2,0.1,0.4,0.1,0.6-0.1c1.2-1.5,3.4-1.6,4.9-0.4c0,0,0.1,0.1,0.1,0.1c0.2,0.2,0.5,0.2,0.6,0c2-1.9,5.1-1.9,7.1,0.1
					s1.9,5.1-0.1,7.1s-5.1,1.9-7.1-0.1c-0.3-0.3-0.6-0.7-0.8-1.1c-0.1-0.2-0.4-0.3-0.6-0.2c-1.4,0.6-3,0.3-4-0.9
					c-0.1-0.2-0.4-0.2-0.6-0.1c-1.1,0.6-2.4,0.3-3.2-0.6c-0.1-0.1-0.2-0.2-0.4-0.2l0,0c-0.1,0-0.3,0.1-0.4,0.2
					c-0.2,0.3-0.6,0.5-1,0.5c-0.3,0-0.5,0.2-0.5,0.5c0,0.3,0.2,0.5,0.5,0.5c0.5,0,1-0.2,1.3-0.5c1,1,2.5,1.2,3.7,0.7
					c0.8,0.8,1.9,1.3,3.1,1.3c0.5,0,0.9-0.1,1.4-0.3c1.7,2.7,5.4,3.6,8.1,1.8c2.7-1.7,3.6-5.4,1.8-8.1C63.9,17.2,62,16.2,60,16.1
					L60,16.1z"/>
				<path class="st9" d="M50.8,53.7c-0.5,0-0.9,0.4-0.9,0.9c0,0,0,0,0,0v1.9c0,0.5,0.4,0.9,0.9,0.9c0.5,0,0.9-0.4,0.9-0.9v-1.9
					C51.7,54.1,51.3,53.7,50.8,53.7C50.8,53.7,50.8,53.7,50.8,53.7z"/>
				<path class="st9" d="M54.6,53.7c-0.5,0-0.9,0.4-0.9,0.9c0,0,0,0,0,0v1.9c0,0.5,0.4,0.9,0.9,0.9c0.5,0,0.9-0.4,0.9-0.9v-1.9
					C55.5,54.1,55.1,53.7,54.6,53.7C54.6,53.7,54.6,53.7,54.6,53.7z"/>
				<path class="st9" d="M58.4,53.7c-0.5,0-0.9,0.4-0.9,0.9c0,0,0,0,0,0v1.9c0,0.5,0.4,0.9,0.9,0.9c0.5,0,0.9-0.4,0.9-0.9v-1.9
					C59.3,54.1,58.9,53.7,58.4,53.7C58.4,53.7,58.4,53.7,58.4,53.7z"/>
				<path class="st9" d="M62.2,53.7c-0.5,0-0.9,0.4-0.9,0.9c0,0,0,0,0,0v1.9c0,0.5,0.4,0.9,0.9,0.9c0.5,0,0.9-0.4,0.9-0.9v-1.9
					C63.1,54.1,62.7,53.7,62.2,53.7C62.2,53.7,62.2,53.7,62.2,53.7z"/>
				<path class="st9" d="M65.9,53.7c-0.5,0-0.9,0.4-0.9,0.9v1.9c0,0.5,0.4,0.9,0.9,0.9c0.5,0,0.9-0.4,0.9-0.9v-1.9
					C66.8,54.1,66.4,53.7,65.9,53.7C65.9,53.7,65.9,53.7,65.9,53.7z"/>
				<path class="st9" d="M69.7,53.7c-0.5,0-0.9,0.4-0.9,0.9v1.9c0,0.5,0.4,0.9,0.9,0.9c0.5,0,0.9-0.4,0.9-0.9v-1.9
					C70.6,54.1,70.2,53.7,69.7,53.7C69.7,53.7,69.7,53.7,69.7,53.7z"/>
				<path class="st9" d="M73.5,53.7c-0.5,0-0.9,0.4-0.9,0.9v1.9c0,0.5,0.4,0.9,0.9,0.9c0.5,0,0.9-0.4,0.9-0.9v-1.9
					C74.4,54.1,74,53.7,73.5,53.7C73.5,53.7,73.5,53.7,73.5,53.7z"/>
				<path class="st9" d="M77.3,53.7c-0.5,0-0.9,0.4-0.9,0.9v1.9c0,0.5,0.4,0.9,0.9,0.9c0.5,0,0.9-0.4,0.9-0.9v-1.9
					C78.2,54.1,77.8,53.7,77.3,53.7C77.3,53.7,77.3,53.7,77.3,53.7z"/>
				<path d="M56.6,45.4c-0.2,0-0.3,0.2-0.3,0.3v0.7c0,0.2,0.2,0.3,0.3,0.3c0.2,0,0.4-0.2,0.4-0.3v-0.7
					C56.9,45.6,56.8,45.4,56.6,45.4L56.6,45.4z"/>
				<path d="M62,45.4c-0.2,0-0.3,0.2-0.3,0.3v0.7c0,0.2,0.2,0.3,0.3,0.3c0.2,0,0.4-0.2,0.4-0.3v-0.7C62.4,45.6,62.2,45.4,62,45.4
					L62,45.4z"/>
				<path d="M60.5,46.5c-0.1-0.1-0.4-0.1-0.5,0c0,0,0,0,0,0c-0.3,0.4-0.9,0.4-1.3,0c0,0,0,0,0,0c-0.1-0.1-0.3-0.2-0.5,0
					s-0.2,0.3,0,0.5l0,0c0.6,0.7,1.6,0.7,2.3,0.1c0,0,0.1-0.1,0.1-0.1C60.6,46.9,60.6,46.7,60.5,46.5z"/>
			</g>
		</g>
		<path class="st10" d="M110.4,91.6c0,1.8-2.3,3.3-5.3,3.3H5.5c-2.9,0-5.3-1.5-5.3-3.3V3.5c0-1.8,2.4-3.3,5.3-3.3h99.7
			c2.9,0,5.3,1.5,5.3,3.3L110.4,91.6z"/>
	</g>
</g>
</svg>
