<svg xmlns="http://www.w3.org/2000/svg" viewBox="0 0 110.64 95.13"><defs><style>.cls-1,.cls-6,.cls-7{fill:#fff;}.cls-1,.cls-10{stroke:#002043;stroke-width:0.44px;}.cls-1,.cls-10,.cls-8{stroke-miterlimit:10;}.cls-2{fill:#ea1c24;}.cls-3{fill:#e65f5f;opacity:0.7;}.cls-4{fill:#af0404;}.cls-5{fill:#d13941;}.cls-7{opacity:0.4;}.cls-10,.cls-8{fill:none;}.cls-8{stroke:#fff;stroke-width:0.6px;stroke-dasharray:1.2 1.2;}.cls-9{opacity:0;}</style></defs><title>DESC_IPU</title><g id="Layer_2" data-name="Layer 2"><g id="Capa_1" data-name="Capa 1"><path class="cls-1" d="M110.42,91.64c0,1.81-2.35,3.28-5.26,3.28H5.48c-2.91,0-5.26-1.47-5.26-3.28V3.5C.22,1.69,2.57.22,5.48.22h99.68c2.91,0,5.26,1.47,5.26,3.28Z"/><polygon class="cls-2" points="110.42 13.52 108.2 12.26 88.58 23.72 110.42 35.98 110.42 13.52"/><path class="cls-2" d="M82.27.55,81.68.22H5.48C2.57.22.22,1.69.22,3.5V29.32l15.33,9.44Z"/><polygon class="cls-3" points="100.43 7.85 30.45 47.92 38.59 52.93 88.58 23.72 108.2 12.26 100.43 7.85"/><polygon class="cls-4" points="21.7 52.93 23.16 52.93 38.59 52.93 30.45 47.92 21.7 52.93"/><polygon class="cls-4" points="0.22 29.32 0.22 47.53 15.55 38.75 0.22 29.32"/><polygon class="cls-5" points="100.43 7.85 86.98 0.22 82.86 0.22 82.27 0.55 15.55 38.75 0.22 47.53 0.22 64.91 0.49 65.07 21.7 52.93 30.45 47.92 100.43 7.85"/><path class="cls-4" d="M100.43,7.85l7.77,4.41,2.22,1.26V3.5c0-1.81-2.35-3.28-5.26-3.28H87Z"/><path class="cls-2" d="M.22,91.64a3,3,0,0,0,1.88,2.49l10.08-5.52-12-6.55Z"/><polygon class="cls-4" points="0.22 82.06 12.18 88.61 12.18 71.89 0.49 65.07 0.22 64.91 0.22 82.06"/><circle class="cls-6" cx="58.58" cy="49.63" r="33.76"/><circle class="cls-7" cx="58.58" cy="49.63" r="37.59"/><circle class="cls-8" cx="58.58" cy="49.63" r="37.59"/><path d="M32.1,71.24h3.84a3.22,3.22,0,0,1,2.18.68,2.55,2.55,0,0,1,0,3.68,3.2,3.2,0,0,1-2.17.68H34V79.7H32.1Zm3.6,3.62q1.45,0,1.45-1.09T35.7,72.67H34v2.2Z"/><path d="M47.26,79.7h-2l-1.08-2.82a.82.82,0,0,0-.4-.46,1.53,1.53,0,0,0-.67-.13H42V79.7H40.12V71.24h3.77a3.38,3.38,0,0,1,2.23.64,2.28,2.28,0,0,1,.76,1.84,2.37,2.37,0,0,1-.45,1.45,2.44,2.44,0,0,1-1.28.87,1.48,1.48,0,0,1,1.08,1Zm-3.65-4.83a2,2,0,0,0,1.16-.27,1.14,1.14,0,0,0,0-1.67,2,2,0,0,0-1.16-.27H41.93v2.21Z"/><path d="M48.54,79.7V71.24h5.83v1.44h-4v2h3.78v1.45H50.34v2.14h4V79.7Z"/><path d="M55.65,71.24h3.27a5.29,5.29,0,0,1,2.39.5,3.48,3.48,0,0,1,1.53,1.45,4.6,4.6,0,0,1,.53,2.27,4.67,4.67,0,0,1-.52,2.28,3.49,3.49,0,0,1-1.52,1.46,5.28,5.28,0,0,1-2.4.5H55.65Zm3.15,7a2.73,2.73,0,0,0,0-5.47H57.51V78.2Z"/><path d="M64.82,79.7V71.24h1.85V79.7Z"/><path d="M74.83,79.7,74,77.82h-4l-.81,1.88H67.39l3.89-8.46h1.5l3.89,8.46Zm-4.15-3.29h2.73l-1.37-3.17Z"/><path d="M77.39,79.7V71.24h1.85v7H83V79.7Z"/><path class="cls-5" d="M33,88.39a2.65,2.65,0,0,1-.64-1.93v-3.9h.73v4a2,2,0,0,0,.46,1.41,1.79,1.79,0,0,0,1.36.48,1.77,1.77,0,0,0,1.34-.48,2,2,0,0,0,.45-1.41v-4h.74v3.9a2.64,2.64,0,0,1-.65,1.93,2.53,2.53,0,0,1-1.89.66A2.55,2.55,0,0,1,33,88.39Z"/><path class="cls-5" d="M43.41,82.57h.7V89h-.57l-3.86-5.16V89H39V82.57h.57l3.86,5.16Z"/><path class="cls-5" d="M45.68,89V82.57h.74V89Z"/><path class="cls-5" d="M48,89V82.57h4v.62H48.72v2.22h3V86h-3V89Z"/><path class="cls-5" d="M53,89V82.57h.74V89Z"/><path class="cls-5" d="M56.52,88.65a2.6,2.6,0,0,1-1-1.14,4,4,0,0,1-.36-1.75A3.92,3.92,0,0,1,55.49,84a2.62,2.62,0,0,1,1-1.13,3,3,0,0,1,1.58-.4,3.52,3.52,0,0,1,1.22.2,2.59,2.59,0,0,1,1,.61l-.28.57a3.1,3.1,0,0,0-.9-.57,2.73,2.73,0,0,0-1-.17,2,2,0,0,0-1.63.68,2.93,2.93,0,0,0-.58,1.94,3,3,0,0,0,.57,2,2,2,0,0,0,1.63.69,2.73,2.73,0,0,0,1-.17,3.12,3.12,0,0,0,.9-.57l.28.57a2.61,2.61,0,0,1-1,.61,3.52,3.52,0,0,1-1.22.2A3,3,0,0,1,56.52,88.65Z"/><path class="cls-5" d="M66.39,89l-.7-1.65H62.35L61.64,89h-.76l2.81-6.41h.65L67.14,89Zm-3.78-2.26h2.82L64,83.42Z"/><path class="cls-5" d="M68.1,82.57h2.15a3.23,3.23,0,0,1,2.38.83,3.76,3.76,0,0,1,0,4.74,3.22,3.22,0,0,1-2.37.84H68.1Zm2.1,5.78a2.47,2.47,0,0,0,1.86-.65,2.69,2.69,0,0,0,.62-1.94q0-2.56-2.49-2.56H68.83v5.15Z"/><path class="cls-5" d="M75.93,88.65a2.6,2.6,0,0,1-1-1.14,4.49,4.49,0,0,1,0-3.49,2.59,2.59,0,0,1,1-1.13,3.25,3.25,0,0,1,3.11,0A2.59,2.59,0,0,1,80,84a4.48,4.48,0,0,1,0,3.48,2.63,2.63,0,0,1-1,1.14,3.19,3.19,0,0,1-3.09,0Zm3.12-.93a3.68,3.68,0,0,0,0-3.92,2.18,2.18,0,0,0-3.17,0,3,3,0,0,0-.57,1.95,3,3,0,0,0,.57,2,2.16,2.16,0,0,0,3.17,0Z"/><g class="cls-9"><path d="M78.34,37.12a6.22,6.22,0,0,1-.52.7c-.88.9-1.77,1.78-2.66,2.67-.61.61-.8.65-1.61.3,0,.17,0,.33,0,.48,0,2.07,0,4.14,0,6.2a1.14,1.14,0,0,1-.15.71,1.41,1.41,0,0,1-.8.42.72.72,0,0,1-.74-.58,2.2,2.2,0,0,1-.07-.61c0-2.57,0-5.14,0-7.71a.84.84,0,0,0-.27-.58Q63.65,33,55.79,26.85l-.14-.09-.31.22L39.84,39.08a.71.71,0,0,0-.33.62q0,11.28,0,22.55v.37H42c0-.14,0-.3,0-.45q0-3.77,0-7.53a2.14,2.14,0,0,1,.06-.57.83.83,0,0,1,.82-.63.84.84,0,0,1,.85.65,2.15,2.15,0,0,1,0,.53q0,3.79,0,7.58c0,.13,0,.26,0,.43h28v-.47q0-3.7,0-7.4a2.47,2.47,0,0,1,0-.53.86.86,0,0,1,1.69,0,2.34,2.34,0,0,1,0,.53q0,3.7,0,7.4v.52c1.21,0,2.37,0,3.53,0a1.25,1.25,0,0,1,1.26.63v1.15H33V63.27a1.24,1.24,0,0,1,1.25-.63c1,0,2.07,0,3.1,0h.4V40.8c-.79.34-1,.3-1.58-.31-.88-.88-1.76-1.75-2.63-2.64a6.9,6.9,0,0,1-.55-.73q0-.18,0-.35a5.6,5.6,0,0,1,.69-.78q6.6-5.17,13.22-10.33L55.38,19h.53l.57.41,6.84,5.34,2.43,1.89c0-1.13,0-2.18,0-3.22,0-.83.32-1.15,1.16-1.15h4.56c.9,0,1.19.3,1.19,1.2,0,2.66,0,5.32,0,8a1,1,0,0,0,.46,1c1.54,1.17,3.06,2.36,4.57,3.57a5.31,5.31,0,0,1,.65.75ZM55.65,21.05,35.24,37l1.92,1.92.29-.21L54.8,25.15c.71-.55,1-.55,1.68,0L73.76,38.64l.32.24L76,36.95Zm15.21,9.63V24.12H67.53c0,1.29,0,2.55,0,3.82a.38.38,0,0,0,.14.25Z"/><path d="M55.68,38.36h8.11c1,0,1.26.27,1.26,1.23Q65,47.81,65,56c0,.81-.32,1.13-1.13,1.13H47.44c-.9,0-1.19-.3-1.19-1.2q0-8.19,0-16.39c0-.9.29-1.2,1.19-1.2Zm-1,8.49V40.17H48v6.68Zm8.52-6.68h-6.7v6.68h6.7Zm-15.19,8.5v6.68h6.68V48.67Zm15.2,0h-6.7v6.67h6.7Z"/><path d="M43.76,50.82a.88.88,0,1,1-1.76,0,.88.88,0,0,1,1.76,0Z"/><path d="M73.54,51.29a.88.88,0,1,1-.89-.87A.91.91,0,0,1,73.54,51.29Z"/></g><path d="M78.39,37.17a6.09,6.09,0,0,1-.51.69c-.86.88-1.73,1.74-2.6,2.61-.6.59-.78.63-1.57.29,0,.17,0,.32,0,.47,0,2,0,4,0,6.07a1.12,1.12,0,0,1-.15.7,1.38,1.38,0,0,1-.79.41.7.7,0,0,1-.73-.57,2.16,2.16,0,0,1-.06-.6c0-2.52,0-5,0-7.55a.82.82,0,0,0-.27-.57q-7.68-6-15.37-12L56.19,27l-.3.21L40.71,39.09a.69.69,0,0,0-.32.6q0,11,0,22.07v.36h2.43c0-.14,0-.29,0-.44,0-2.46,0-.17,0-2.62a2.09,2.09,0,0,1,.06-.56.81.81,0,0,1,.8-.62.83.83,0,0,1,.83.63,2.1,2.1,0,0,1,0,.51c0,2.47,0,.2,0,2.67,0,.13,0,.26,0,.42H72v-.46q0-3.62,0-7.24a2.41,2.41,0,0,1,0-.52.84.84,0,0,1,1.65,0,2.29,2.29,0,0,1,0,.52q0,3.62,0,7.24v.51c1.18,0,2.32,0,3.46,0a1.22,1.22,0,0,1,1.23.62v1.13H34V62.76a1.22,1.22,0,0,1,1.23-.62c1,0,2,0,3,0h.39V40.78c-.77.33-.94.3-1.54-.31-.86-.86-1.72-1.71-2.57-2.58a6.76,6.76,0,0,1-.54-.72q0-.17,0-.35a5.48,5.48,0,0,1,.67-.76Q41.11,31,47.58,26l8.34-6.48h.52l.55.41,6.7,5.23L66.07,27c0-1.11,0-2.13,0-3.15,0-.82.31-1.12,1.13-1.12h4.47c.88,0,1.17.29,1.17,1.17,0,2.6,0,5.2,0,7.8a1,1,0,0,0,.45.94c1.51,1.14,3,2.31,4.48,3.49a5.19,5.19,0,0,1,.64.74ZM56.18,21.44,36.21,37l1.88,1.88.28-.2,17-13.26c.69-.54,1-.54,1.64,0L73.91,38.65l.31.23L76.11,37Zm14.89,9.42V24.44H67.81c0,1.26,0,2.5,0,3.74a.37.37,0,0,0,.14.25Z"/><path d="M56.58,32.74h4.37c.52,0,.68.15.68.66q0,4.43,0,8.86c0,.44-.17.61-.61.61H52.14c-.48,0-.64-.16-.64-.65q0-4.42,0-8.83c0-.49.16-.65.64-.65Zm-.51,4.58v-3.6h-3.6v3.6Zm4.59-3.6H57v3.6h3.61Zm-8.19,4.58v3.6h3.6v-3.6Zm8.19,0H57.05v3.6h3.61Z"/><path d="M44.55,55.33a.86.86,0,1,1-1.72,0,.86.86,0,0,1,1.72,0Z"/><path d="M73.7,51a.86.86,0,1,1-.87-.85A.89.89,0,0,1,73.7,51Z"/><path d="M46.17,46.61a.94.94,0,0,0-.94.94v1.82a.94.94,0,1,0,1.88,0V47.55A.94.94,0,0,0,46.17,46.61Z"/><path d="M66.32,46.61a.94.94,0,0,0-.94.94v1.82a.94.94,0,1,0,1.88,0V47.55A.94.94,0,0,0,66.32,46.61Z"/><path d="M59.35,48.54a.94.94,0,0,0-1.32.09,2.42,2.42,0,0,1-3.56,0A.94.94,0,1,0,53,49.86a4.3,4.3,0,0,0,6.39,0A.94.94,0,0,0,59.35,48.54Z"/><path class="cls-10" d="M110.42,91.64c0,1.81-2.35,3.28-5.26,3.28H5.48c-2.91,0-5.26-1.47-5.26-3.28V3.5C.22,1.69,2.57.22,5.48.22h99.68c2.91,0,5.26,1.47,5.26,3.28Z"/></g></g></svg>